<svg width="30" height="18" viewBox="0 0 30 18" fill="none" xmlns="http://www.w3.org/2000/svg">
<path fill-rule="evenodd" clip-rule="evenodd" d="M5.83331 1.24996C5.83331 0.559626 6.17531 0 6.59718 0H23.4022C23.8241 0 24.166 0.559626 24.166 1.24996C24.166 1.94029 23.8241 2.49992 23.4022 2.49992H6.59718C6.17531 2.49992 5.83331 1.94029 5.83331 1.24996Z" fill="white"/>
<path fill-rule="evenodd" clip-rule="evenodd" d="M5.83331 16.2495C5.83331 15.5591 6.17531 14.9995 6.59718 14.9995H23.4022C23.8241 14.9995 24.166 15.5591 24.166 16.2495C24.166 16.9398 23.8241 17.4994 23.4022 17.4994H6.59718C6.17531 17.4994 5.83331 16.9398 5.83331 16.2495Z" fill="white"/>
<path fill-rule="evenodd" clip-rule="evenodd" d="M0.000976562 8.74972C0.000976562 8.05938 0.560602 7.49976 1.25094 7.49976H28.75C29.4404 7.49976 30 8.05938 30 8.74972C30 9.44005 29.4404 9.99967 28.75 9.99967H1.25094C0.560602 9.99967 0.000976562 9.44005 0.000976562 8.74972Z" fill="white"/>
</svg>
